#!OML:ASF F:\VICON\USERDATA\INSTALL\SteveWalk\SteveWalk.ASF
:FULLY-SPECIFIED
:DEGREES
272
root -0.250124 16.3839 14.3192 19.0084 -1.54054 -0.919351
lowerback -15.3382 1.03054 1.98702
upperback -5.28781 0.992242 1.74637
thorax 2.99337 0.492677 0.882027
lowerneck -4.28583 0.783163 1.01316
upperneck 7.20946 1.30555 -4.28195
head 3.11083 0.521326 -1.521
rclavicle 3.60297e-015 -1.11319e-014
rhumerus -18.5997 2.40628 -85.6856
rradius 41.3471
rwrist -14.9934
rhand -16.2113 -33.6071
rfingers 7.12502
rthumb 9.99635 -63.3497
lclavicle 3.60297e-015 -1.11319e-014
lhumerus -57.2304 30.6646 54.7561
lradius 10.9337
lwrist -56.0927
lhand -1.05824 -13.0588
lfingers 7.12502
lthumb 24.5764 15.3837
rfemur -19.3603 -10.3597 25.1674
rtibia 31.288
rfoot -26.2843 15.7173
rtoes 0.595213
lfemur -48.8841 4.29325 -21.8721
ltibia 36.5404
lfoot -9.04977 7.3684
ltoes -9.16266
273
root -0.247893 16.374 14.5376 18.8471 -2.11254 -0.977206
lowerback -15.3121 1.18649 1.97195
upperback -5.17706 1.20113 1.65128
thorax 3.09787 0.596148 0.828584
lowerneck -4.10657 0.831631 1.0796
upperneck 7.07281 1.36255 -4.30684
head 3.03308 0.554084 -1.53703
rclavicle -3.5657e-015 -4.77083e-015
rhumerus -17.5433 3.6246 -85.7911
rradius 42.489
rwrist -15.8594
rhand -16.2223 -35.3121
rfingers 7.12502
rthumb 9.98568 -65.0552
lclavicle -3.5657e-015 -4.77083e-015
lhumerus -57.5611 28.6067 56.3661
lradius 11.2245
lwrist -52.9235
lhand -1.12093 -13.0504
lfingers 7.12502
lthumb 24.5163 15.4003
rfemur -17.878 -10.459 24.8414
rtibia 30.2902
rfoot -25.9854 16.8093
rtoes 2.28878
lfemur -48.4719 4.2408 -21.6014
ltibia 32.9659
lfoot -8.89472 7.62368
ltoes -10.6003
274
root -0.246934 16.3661 14.7505 18.7895 -2.94912 -0.986089
lowerback -15.3203 1.41468 1.82317
upperback -5.09909 1.52475 1.55525
thorax 3.18351 0.756737 0.870587
lowerneck -4.09415 0.913717 1.03181
upperneck 7.06805 1.46825 -4.20611
head 3.03013 0.608976 -1.49101
rclavicle -1.51076e-014 -2.14687e-014
rhumerus -16.339 4.66693 -85.7749
rradius 43.1795
rwrist -16.5649
rhand -16.608 -34.5411
rfingers 7.12502
rthumb 9.61361 -64.3018
lclavicle -1.51076e-014 -2.14687e-014
lhumerus -58.1388 26.827 57.6698
lradius 11.4494
lwrist -50.1105
lhand -1.4467 -13.2984
lfingers 7.12502
lthumb 24.204 15.1942
rfemur -16.4498 -10.1141 24.385
rtibia 29.1583
rfoot -25.6483 17.5458
rtoes 3.4283
lfemur -48.1781 4.11902 -21.2352
ltibia 29.4988
lfoot -8.70511 7.82775
ltoes -9.46236
275
root -0.240997 16.3599 14.9697 19.3799 -4.11515 -1.30784
lowerback -15.909 1.83889 1.96421
upperback -5.19061 2.0446 1.51828
thorax 3.40584 1.01296 0.862808
lowerneck -4.15849 0.97293 0.949444
upperneck 7.06752 1.54659 -4.11369
head 3.04188 0.648175 -1.44286
rclavicle 4.84538e-015 7.15625e-015
rhumerus -15.2258 5.46114 -85.6183
rradius 43.3985
rwrist -16.9065
rhand -15.8233 -31.5058
rfingers 7.12502
rthumb 10.3706 -61.2301
lclavicle 4.84538e-015 7.15625e-015
lhumerus -59.0654 25.7922 58.0992
lradius 11.5967
lwrist -48.3352
lhand -1.51704 -13.1713
lfingers 7.12502
lthumb 24.1365 15.3303
rfemur -15.6788 -10.0412 24.1948
rtibia 27.9486
rfoot -25.2421 19.1471
rtoes 4.83785
lfemur -48.5595 4.31049 -20.6312
ltibia 26.2256
lfoot -8.25312 8.0773
ltoes -9.26614
276
root -0.229652 16.3483 15.1981 19.9545 -4.64349 -1.83979
lowerback -16.5294 2.1144 2.47991
upperback -5.3121 2.30206 1.55784
thorax 3.62411 1.13837 0.68223
lowerneck -4.02976 0.991618 0.871983
upperneck 6.94702 1.5698 -4.07746
head 2.97546 0.661608 -1.41513
rclavicle 1.72694e-014 -2.22639e-014
rhumerus -14.2499 6.12648 -85.4347
rradius 44.4232
rwrist -16.2503
rhand -13.694 -35.0785
rfingers 7.12502
rthumb 12.4242 -64.6892
lclavicle 1.72694e-014 -2.22639e-014
lhumerus -59.9656 24.7137 58.6416
lradius 11.7248
lwrist -46.3314
lhand -1.93519 -13.0712
lfingers 7.12502
lthumb 23.7356 15.483
rfemur -14.7557 -10.5174 24.3723
rtibia 26.666
rfoot -25.4138 20.4279
rtoes 3.42318
lfemur -49.0363 4.4709 -19.9374
ltibia 23.2837
lfoot -8.32334 7.96378
ltoes -8.38262
277
root -0.221892 16.3286 15.4157 20.1174 -4.97528 -2.22415
lowerback -16.5717 2.27854 2.81885
upperback -5.38605 2.46209 1.56793
thorax 3.58193 1.2157 0.533051
lowerneck -3.97766 1.0478 0.820516
upperneck 6.90433 1.63996 -3.98186
head 2.95078 0.699399 -1.3715
rclavicle 1.881e-014 2.5842e-014
rhumerus -13.3161 6.73318 -85.3398
rradius 45.5838
rwrist -15.6732
rhand -13.0267 -38.8417
rfingers 7.12502
rthumb 13.0674 -68.4123
lclavicle 1.881e-014 2.5842e-014
lhumerus -60.722 23.3086 59.5801
lradius 11.8897
lwrist -43.9515
lhand -2.75279 -13.4216
lfingers 7.12502
lthumb 22.9512 15.2323
rfemur -13.3697 -10.3559 24.4042
rtibia 25.3014
rfoot -25.6656 20.7534
rtoes 0.365922
lfemur -49.3246 4.79224 -19.5834
ltibia 20.836
lfoot -8.91453 7.62847
ltoes -5.53817
